STARTFONT 2.1
COMMENT  
COMMENT  WARNING:  This bdf file was generated from an X server using
COMMENT  xbdfdump.  The resulting font is subject to the same copyright,
COMMENT  license, and trademark restrictions as the original font.  The
COMMENT  author and distributors of xbdfdump disclaim all liability for
COMMENT  misuse of the program or its output.
COMMENT  
FONT -phaisarn-angsana-medium-r-normal--18-180-75-75-p-75-tis620-0
SIZE 18 75 75
FONTBOUNDINGBOX 43 50 -14 -15
STARTPROPERTIES 27
FOUNDRY "Phaisarn"
FAMILY_NAME "Angsana"
WEIGHT_NAME "medium"
SLANT "r"
SETWIDTH_NAME "normal"
ADD_STYLE_NAME ""
PIXEL_SIZE 18
POINT_SIZE 180
RESOLUTION_X 75
RESOLUTION_Y 75
SPACING "p"
AVERAGE_WIDTH 75
CHARSET_REGISTRY "tis620"
CHARSET_ENCODING "0"
COPYRIGHT "Angsana by Pt-TITech 1997"
RAW_PIXELSIZE 1000
RAW_POINTSIZE 723
RAW_ASCENT 736
RAW_DESCENT 0
RAW_AVERAGE_WIDTH 2994
FACE_NAME "Angsana"
WEIGHT 10
X_HEIGHT 11
QUAD_WIDTH 15
FONT_ASCENT 35
FONT_DESCENT 10
_XMBDFED_INFO "Edited with xmbdfed 4.5."
ENDPROPERTIES
CHARS 195
STARTCHAR space
ENCODING 32
SWIDTH 320 0
DWIDTH 6 0
BBX 0 0 0 0
BITMAP
ENDCHAR
STARTCHAR exclam
ENCODING 33
SWIDTH 426 0
DWIDTH 8 0
BBX 3 16 3 0
BITMAP
E0
E0
E0
E0
E0
E0
40
40
40
40
40
00
00
E0
E0
E0
ENDCHAR
STARTCHAR quotedbl
ENCODING 34
SWIDTH 533 0
DWIDTH 10 0
BBX 6 7 2 9
BITMAP
CC
CC
CC
CC
CC
44
44
ENDCHAR
STARTCHAR numbersign
ENCODING 35
SWIDTH 640 0
DWIDTH 12 0
BBX 11 16 0 0
BITMAP
0840
0840
0840
0880
1080
FFE0
1080
1080
1100
2100
FFE0
2100
2100
2200
4200
4200
ENDCHAR
STARTCHAR dollar
ENCODING 36
SWIDTH 640 0
DWIDTH 12 0
BBX 10 19 1 -2
BITMAP
0800
1E00
6980
C880
C880
C880
6800
7800
3C00
1E00
0F00
0980
08C0
88C0
88C0
C980
EF00
1800
0800
ENDCHAR
STARTCHAR percent
ENCODING 37
SWIDTH 1066 0
DWIDTH 20 0
BBX 18 17 1 -1
BITMAP
380200
6C0400
C40800
C60800
C61000
C62000
C62000
6C4000
18C200
008D80
0118C0
0118C0
0218C0
0418C0
0418C0
080980
100700
ENDCHAR
STARTCHAR ampersand
ENCODING 38
SWIDTH 1013 0
DWIDTH 19 0
BBX 17 16 1 0
BITMAP
018000
066000
0C2000
0C2000
0C6000
0EC000
079F00
060C00
1B0800
638800
41D000
C0E000
C0E080
E0F080
73BF00
3E1E00
ENDCHAR
STARTCHAR apostrophe
ENCODING 39
SWIDTH 213 0
DWIDTH 4 0
BBX 2 7 1 9
BITMAP
C0
C0
C0
C0
C0
40
40
ENDCHAR
STARTCHAR parenleft
ENCODING 40
SWIDTH 426 0
DWIDTH 8 0
BBX 7 22 1 -5
BITMAP
06
08
10
30
20
60
40
C0
C0
C0
C0
C0
C0
C0
40
40
60
20
30
10
08
06
ENDCHAR
STARTCHAR parenright
ENCODING 41
SWIDTH 426 0
DWIDTH 8 0
BBX 7 22 0 -5
BITMAP
C0
20
10
18
08
0C
0C
04
06
06
06
06
06
06
06
04
0C
08
18
10
20
C0
ENDCHAR
STARTCHAR asterisk
ENCODING 42
SWIDTH 640 0
DWIDTH 12 0
BBX 8 10 2 7
BITMAP
18
18
CB
EF
3C
3C
EF
CB
18
18
ENDCHAR
STARTCHAR plus
ENCODING 43
SWIDTH 746 0
DWIDTH 14 0
BBX 13 12 0 2
BITMAP
0200
0200
0200
0200
0200
0200
FFF8
0200
0200
0200
0200
0200
ENDCHAR
STARTCHAR comma
ENCODING 44
SWIDTH 320 0
DWIDTH 6 0
BBX 4 6 1 -4
BITMAP
60
F0
70
10
20
C0
ENDCHAR
STARTCHAR minus
ENCODING 45
SWIDTH 426 0
DWIDTH 8 0
BBX 6 2 1 4
BITMAP
FC
FC
ENDCHAR
STARTCHAR period
ENCODING 46
SWIDTH 320 0
DWIDTH 6 0
BBX 3 3 1 -1
BITMAP
E0
E0
E0
ENDCHAR
STARTCHAR slash
ENCODING 47
SWIDTH 373 0
DWIDTH 7 0
BBX 7 17 0 0
BITMAP
02
04
04
04
08
08
08
10
10
10
20
20
20
40
40
40
80
ENDCHAR
STARTCHAR 0
ENCODING 48
SWIDTH 640 0
DWIDTH 12 0
BBX 10 16 1 0
BITMAP
0E00
3300
6180
6180
40C0
C0C0
C0C0
C0C0
C0C0
C0C0
C0C0
6080
6180
6180
3300
0C00
ENDCHAR
STARTCHAR 1
ENCODING 49
SWIDTH 640 0
DWIDTH 12 0
BBX 6 16 3 0
BITMAP
10
F0
30
30
30
30
30
30
30
30
30
30
30
30
30
FC
ENDCHAR
STARTCHAR 2
ENCODING 50
SWIDTH 640 0
DWIDTH 12 0
BBX 11 16 0 0
BITMAP
1F00
3F80
6380
41C0
40C0
00C0
0080
0180
0100
0200
0400
0800
1000
2020
7FC0
FFC0
ENDCHAR
STARTCHAR 3
ENCODING 51
SWIDTH 640 0
DWIDTH 12 0
BBX 9 16 1 0
BITMAP
3C00
4700
8300
0300
0200
0200
0400
1F00
0700
0380
0180
0180
0180
0300
E600
7800
ENDCHAR
STARTCHAR 4
ENCODING 52
SWIDTH 640 0
DWIDTH 12 0
BBX 11 16 0 0
BITMAP
0180
0180
0380
0580
0980
0980
1180
2180
4180
4180
FFE0
FFE0
0180
0180
0180
0180
ENDCHAR
STARTCHAR 5
ENCODING 53
SWIDTH 640 0
DWIDTH 12 0
BBX 9 16 1 0
BITMAP
1F80
1F00
2000
2000
7000
7C00
3E00
0700
0380
0380
0180
0180
0100
0300
C600
7800
ENDCHAR
STARTCHAR 6
ENCODING 54
SWIDTH 640 0
DWIDTH 12 0
BBX 10 16 1 0
BITMAP
03C0
0C00
1800
3000
6000
6000
7F00
E380
C1C0
C1C0
C0C0
C0C0
40C0
6180
3300
1E00
ENDCHAR
STARTCHAR 7
ENCODING 55
SWIDTH 640 0
DWIDTH 12 0
BBX 10 16 1 0
BITMAP
7FC0
7FC0
4080
8080
0180
0100
0100
0300
0200
0200
0600
0400
0400
0C00
0800
0800
ENDCHAR
STARTCHAR 8
ENCODING 56
SWIDTH 640 0
DWIDTH 12 0
BBX 10 16 1 0
BITMAP
1E00
3300
6180
6180
6180
7300
3A00
1C00
1600
3380
6380
C1C0
C0C0
6080
3300
1E00
ENDCHAR
STARTCHAR 9
ENCODING 57
SWIDTH 640 0
DWIDTH 12 0
BBX 10 16 1 0
BITMAP
1E00
3300
6180
C080
C0C0
C0C0
C0C0
E0C0
71C0
3F80
0180
0300
0300
0400
1800
E000
ENDCHAR
STARTCHAR colon
ENCODING 58
SWIDTH 373 0
DWIDTH 7 0
BBX 3 11 2 0
BITMAP
E0
E0
E0
00
00
00
00
00
E0
E0
E0
ENDCHAR
STARTCHAR semicolon
ENCODING 59
SWIDTH 373 0
DWIDTH 7 0
BBX 3 15 2 -4
BITMAP
C0
E0
C0
00
00
00
00
00
C0
E0
E0
20
20
40
80
ENDCHAR
STARTCHAR less
ENCODING 60
SWIDTH 746 0
DWIDTH 14 0
BBX 13 12 0 2
BITMAP
0008
0070
01C0
0600
1800
E000
6000
1800
0700
01C0
0030
0008
ENDCHAR
STARTCHAR equal
ENCODING 61
SWIDTH 746 0
DWIDTH 14 0
BBX 13 4 0 6
BITMAP
FFF8
0000
0000
FFF8
ENDCHAR
STARTCHAR greater
ENCODING 62
SWIDTH 746 0
DWIDTH 14 0
BBX 13 12 0 2
BITMAP
8000
6000
1C00
0700
00C0
0030
0038
00C0
0300
1C00
7000
8000
ENDCHAR
STARTCHAR question
ENCODING 63
SWIDTH 586 0
DWIDTH 11 0
BBX 9 16 1 0
BITMAP
3E00
4700
C380
C180
4180
0180
0300
0200
0400
0400
0800
0800
0000
1C00
1C00
1C00
ENDCHAR
STARTCHAR at
ENCODING 64
SWIDTH 1173 0
DWIDTH 22 0
BBX 21 22 1 -5
BITMAP
007C00
018700
060080
080040
100020
200020
603230
404E10
408610
810610
830C10
830C20
861C20
861820
863840
47D988
430E10
600010
200020
1800C0
070300
00FC00
ENDCHAR
STARTCHAR A
ENCODING 65
SWIDTH 906 0
DWIDTH 17 0
BBX 17 16 0 0
BITMAP
008000
00C000
01C000
01C000
03E000
026000
067000
043000
043800
081800
0FF800
101C00
100C00
200E00
600E00
F81F80
ENDCHAR
STARTCHAR B
ENCODING 66
SWIDTH 853 0
DWIDTH 16 0
BBX 15 16 0 0
BITMAP
FFC0
1878
1818
180C
180C
180C
1838
1FF0
1838
180C
180E
180E
180E
181C
1838
FFC0
ENDCHAR
STARTCHAR C
ENCODING 67
SWIDTH 853 0
DWIDTH 16 0
BBX 15 16 1 0
BITMAP
03E4
0E1C
1804
3004
7002
7000
E000
E000
E000
E000
E000
7000
7002
3804
1E18
03E0
ENDCHAR
STARTCHAR D
ENCODING 68
SWIDTH 906 0
DWIDTH 17 0
BBX 16 16 0 0
BITMAP
FFC0
1838
181C
180E
180E
1807
1807
1807
1807
1807
1807
180E
180C
181C
1830
FFC0
ENDCHAR
STARTCHAR E
ENCODING 69
SWIDTH 800 0
DWIDTH 15 0
BBX 14 16 0 0
BITMAP
FFF8
1818
1808
1800
1800
1810
1820
1FE0
1820
1810
1800
1800
1804
1808
1818
FFF8
ENDCHAR
STARTCHAR F
ENCODING 70
SWIDTH 693 0
DWIDTH 13 0
BBX 12 16 0 0
BITMAP
FFF0
1830
1810
1800
1800
1840
1840
1FC0
1840
1840
1800
1800
1800
1800
3C00
FF00
ENDCHAR
STARTCHAR G
ENCODING 71
SWIDTH 906 0
DWIDTH 17 0
BBX 16 16 1 0
BITMAP
03E4
0C1C
180C
3004
7004
6000
E000
E03F
E00C
E00C
F00C
700C
300C
380C
0E1C
03F0
ENDCHAR
STARTCHAR H
ENCODING 72
SWIDTH 906 0
DWIDTH 17 0
BBX 18 16 0 0
BITMAP
FF3FC0
180600
180600
180600
180600
180600
180600
1FFE00
180600
180600
180600
180600
180600
180600
3C0F00
FF3FC0
ENDCHAR
STARTCHAR I
ENCODING 73
SWIDTH 426 0
DWIDTH 8 0
BBX 8 16 0 0
BITMAP
FF
3C
18
18
18
18
18
18
18
18
18
18
18
18
1C
FF
ENDCHAR
STARTCHAR J
ENCODING 74
SWIDTH 480 0
DWIDTH 9 0
BBX 10 16 0 0
BITMAP
3FC0
0E00
0600
0600
0600
0600
0600
0600
0600
0600
0600
0600
0600
C600
E400
7800
ENDCHAR
STARTCHAR K
ENCODING 75
SWIDTH 906 0
DWIDTH 17 0
BBX 18 16 0 0
BITMAP
FE7E00
381800
181000
182000
18C000
190000
1B0000
1E0000
1B0000
198000
18E000
187000
183800
181C00
181E00
FE3FC0
ENDCHAR
STARTCHAR L
ENCODING 76
SWIDTH 800 0
DWIDTH 15 0
BBX 14 16 0 0
BITMAP
FE00
1800
1800
1800
1800
1800
1800
1800
1800
1800
1800
1800
1804
1808
1818
FFF8
ENDCHAR
STARTCHAR M
ENCODING 77
SWIDTH 1120 0
DWIDTH 21 0
BBX 20 16 1 0
BITMAP
F000F0
3801C0
3801C0
3C03C0
2C02C0
2E06C0
2604C0
270CC0
2308C0
2398C0
2190C0
21D0C0
20E0C0
20E0C0
2040C0
F843F0
ENDCHAR
STARTCHAR N
ENCODING 78
SWIDTH 906 0
DWIDTH 17 0
BBX 17 16 0 0
BITMAP
F80F80
380200
1C0200
1E0200
170200
138200
13C200
11C200
10E200
107200
103A00
101E00
100E00
100E00
100600
7C0200
ENDCHAR
STARTCHAR O
ENCODING 79
SWIDTH 906 0
DWIDTH 17 0
BBX 15 16 1 0
BITMAP
07C0
0C60
3018
301C
600C
600C
E00E
E00E
E00E
E00E
600C
700C
7018
3010
1C60
0780
ENDCHAR
STARTCHAR P
ENCODING 80
SWIDTH 693 0
DWIDTH 13 0
BBX 13 16 0 0
BITMAP
FF80
1860
1830
1838
1838
1838
1870
18F0
1FC0
1800
1800
1800
1800
1800
3800
FF00
ENDCHAR
STARTCHAR Q
ENCODING 81
SWIDTH 906 0
DWIDTH 17 0
BBX 15 21 1 -5
BITMAP
07C0
0C60
1030
3018
701C
601C
E00E
E00E
E00E
E00E
E00E
600C
701C
3018
1830
0C60
0380
01C0
00C0
0070
000E
ENDCHAR
STARTCHAR R
ENCODING 82
SWIDTH 853 0
DWIDTH 16 0
BBX 16 16 0 0
BITMAP
FF80
18F0
1830
1838
1838
1838
1870
18E0
1F80
18C0
18E0
1860
1830
1838
381C
FF0F
ENDCHAR
STARTCHAR S
ENCODING 83
SWIDTH 693 0
DWIDTH 13 0
BBX 11 16 1 0
BITMAP
1E40
71C0
60C0
C040
C040
E040
7800
3E00
0FC0
01E0
80E0
8060
8060
C0C0
F1C0
9F00
ENDCHAR
STARTCHAR T
ENCODING 84
SWIDTH 800 0
DWIDTH 15 0
BBX 13 16 1 0
BITMAP
FFF8
C618
8608
8608
0600
0600
0600
0600
0600
0600
0600
0600
0600
0600
0600
1F80
ENDCHAR
STARTCHAR U
ENCODING 85
SWIDTH 906 0
DWIDTH 17 0
BBX 18 16 -1 0
BITMAP
FF07C0
3C0180
180100
180100
180100
180100
180100
180100
180100
180100
180100
180100
1C0100
0C0200
0F0C00
01F000
ENDCHAR
STARTCHAR V
ENCODING 86
SWIDTH 906 0
DWIDTH 17 0
BBX 17 16 0 0
BITMAP
FC0F80
780700
380200
180400
180400
1C0C00
0C0800
0E1800
061000
071000
032000
03A000
01C000
01C000
008000
008000
ENDCHAR
STARTCHAR W
ENCODING 87
SWIDTH 1226 0
DWIDTH 23 0
BBX 22 16 0 0
BITMAP
FCFC7C
787818
383010
383830
181820
1C1820
0C2C40
0C2C40
0E2C40
064680
074680
034680
038300
038300
018300
010100
ENDCHAR
STARTCHAR X
ENCODING 88
SWIDTH 906 0
DWIDTH 17 0
BBX 17 16 0 0
BITMAP
FE1F80
3C0600
0C0400
0E0800
061000
032000
03C000
01C000
01E000
02E000
067000
043800
081C00
180E00
700F00
FC3F80
ENDCHAR
STARTCHAR Y
ENCODING 89
SWIDTH 906 0
DWIDTH 17 0
BBX 17 16 0 0
BITMAP
FE0F80
780E00
380C00
1C0800
0C1000
0E3000
072000
034000
038000
018000
018000
018000
018000
018000
01C000
07E000
ENDCHAR
STARTCHAR Z
ENCODING 90
SWIDTH 800 0
DWIDTH 15 0
BBX 14 16 0 0
BITMAP
3FF8
2038
2070
2060
00E0
01C0
0380
0300
0700
0E00
0C00
1C00
3804
3004
7018
FFF8
ENDCHAR
STARTCHAR bracketleft
ENCODING 91
SWIDTH 426 0
DWIDTH 8 0
BBX 5 21 2 -5
BITMAP
F8
C0
C0
C0
C0
C0
C0
C0
C0
C0
C0
C0
C0
C0
C0
C0
C0
C0
C0
C0
F8
ENDCHAR
STARTCHAR backslash
ENCODING 92
SWIDTH 373 0
DWIDTH 7 0
BBX 7 17 0 0
BITMAP
80
40
40
40
20
20
20
10
10
10
08
08
08
04
04
04
02
ENDCHAR
STARTCHAR bracketright
ENCODING 93
SWIDTH 426 0
DWIDTH 8 0
BBX 5 21 1 -5
BITMAP
F8
18
18
18
18
18
18
18
18
18
18
18
18
18
18
18
18
18
18
18
F8
ENDCHAR
STARTCHAR asciicircum
ENCODING 94
SWIDTH 586 0
DWIDTH 11 0
BBX 11 8 0 8
BITMAP
0400
0A00
0A00
1100
3180
2080
4040
C060
ENDCHAR
STARTCHAR underscore
ENCODING 95
SWIDTH 640 0
DWIDTH 12 0
BBX 13 1 0 -5
BITMAP
FFF8
ENDCHAR
STARTCHAR grave
ENCODING 96
SWIDTH 426 0
DWIDTH 8 0
BBX 4 4 1 12
BITMAP
E0
60
20
10
ENDCHAR
STARTCHAR a
ENCODING 97
SWIDTH 586 0
DWIDTH 11 0
BBX 10 11 1 0
BITMAP
3C00
4700
C300
C300
0F00
3300
4300
C300
C300
EF40
7380
ENDCHAR
STARTCHAR b
ENCODING 98
SWIDTH 640 0
DWIDTH 12 0
BBX 11 17 0 0
BITMAP
3000
F000
3000
3000
3000
3000
3380
37C0
39C0
30E0
3060
3060
3060
3060
30C0
3880
0F00
ENDCHAR
STARTCHAR c
ENCODING 99
SWIDTH 586 0
DWIDTH 11 0
BBX 10 11 1 0
BITMAP
1E00
3100
6180
C080
C000
C000
C040
E080
7180
3F00
1E00
ENDCHAR
STARTCHAR d
ENCODING 100
SWIDTH 640 0
DWIDTH 12 0
BBX 11 17 1 0
BITMAP
0180
0780
0180
0180
0180
0180
1D80
3380
6180
6180
C180
C180
C180
E180
E180
73A0
3DC0
ENDCHAR
STARTCHAR e
ENCODING 101
SWIDTH 586 0
DWIDTH 11 0
BBX 9 11 1 0
BITMAP
1E00
2300
6300
4180
FF80
C000
C000
E080
7100
3F00
1E00
ENDCHAR
STARTCHAR f
ENCODING 102
SWIDTH 426 0
DWIDTH 8 0
BBX 10 17 1 0
BITMAP
0700
1B80
10C0
3000
3000
3000
FE00
3000
3000
3000
3000
3000
3000
3000
3000
3000
FC00
ENDCHAR
STARTCHAR g
ENCODING 103
SWIDTH 640 0
DWIDTH 12 0
BBX 10 16 1 -5
BITMAP
1E00
33C0
6180
6180
6180
7180
3300
1E00
2000
7F80
3F80
2040
4040
C040
F180
3F00
ENDCHAR
STARTCHAR h
ENCODING 104
SWIDTH 640 0
DWIDTH 12 0
BBX 12 17 0 0
BITMAP
3000
F000
3000
3000
3000
3000
3780
38C0
30C0
30C0
30C0
30C0
30C0
30C0
30C0
30C0
FDF0
ENDCHAR
STARTCHAR i
ENCODING 105
SWIDTH 373 0
DWIDTH 7 0
BBX 6 17 0 0
BITMAP
30
18
30
00
00
00
30
F0
30
30
30
30
30
30
30
18
FC
ENDCHAR
STARTCHAR j
ENCODING 106
SWIDTH 373 0
DWIDTH 7 0
BBX 7 22 -2 -5
BITMAP
0C
06
0C
00
00
00
04
1C
0C
0C
0C
0C
0C
0C
0C
0C
0C
0C
0C
08
E4
70
ENDCHAR
STARTCHAR k
ENCODING 107
SWIDTH 640 0
DWIDTH 12 0
BBX 12 17 0 0
BITMAP
3000
F000
3000
3000
3000
3000
31F0
30C0
3100
3200
3400
3E00
3700
3380
31C0
30E0
FDF0
ENDCHAR
STARTCHAR l
ENCODING 108
SWIDTH 373 0
DWIDTH 7 0
BBX 5 17 1 0
BITMAP
60
E0
60
60
60
60
60
60
60
60
60
60
60
60
60
60
F8
ENDCHAR
STARTCHAR m
ENCODING 109
SWIDTH 1013 0
DWIDTH 19 0
BBX 19 11 0 0
BITMAP
778F00
B9F180
30C180
30C180
30C180
30C180
30C180
30C180
30C180
30C180
FBF3E0
ENDCHAR
STARTCHAR n
ENCODING 110
SWIDTH 640 0
DWIDTH 12 0
BBX 12 11 0 0
BITMAP
F780
39C0
30C0
30C0
30C0
30C0
30C0
30C0
30C0
30C0
FBF0
ENDCHAR
STARTCHAR o
ENCODING 111
SWIDTH 640 0
DWIDTH 12 0
BBX 10 11 1 0
BITMAP
1E00
2300
4180
40C0
C0C0
C0C0
C0C0
E080
6180
3300
1C00
ENDCHAR
STARTCHAR p
ENCODING 112
SWIDTH 640 0
DWIDTH 12 0
BBX 11 16 0 -5
BITMAP
1380
F7C0
38C0
30E0
3060
3060
3060
3060
30C0
3880
3700
3000
3000
3000
3000
FC00
ENDCHAR
STARTCHAR q
ENCODING 113
SWIDTH 640 0
DWIDTH 12 0
BBX 11 16 1 -5
BITMAP
1E80
3380
6180
C180
C180
C180
C180
E180
6380
7D80
3980
0180
0180
0180
0180
07E0
ENDCHAR
STARTCHAR r
ENCODING 114
SWIDTH 426 0
DWIDTH 8 0
BBX 8 11 0 0
BITMAP
36
F7
3E
30
30
30
30
30
30
30
F8
ENDCHAR
STARTCHAR s
ENCODING 115
SWIDTH 480 0
DWIDTH 9 0
BBX 7 11 1 0
BITMAP
7C
4C
84
84
E0
78
1C
86
86
C4
F8
ENDCHAR
STARTCHAR t
ENCODING 116
SWIDTH 373 0
DWIDTH 7 0
BBX 6 14 0 0
BITMAP
10
10
30
FC
30
30
30
30
30
30
30
30
3C
18
ENDCHAR
STARTCHAR u
ENCODING 117
SWIDTH 640 0
DWIDTH 12 0
BBX 12 11 0 0
BITMAP
F3C0
30C0
30C0
30C0
30C0
30C0
30C0
30C0
30C0
33D0
1CE0
ENDCHAR
STARTCHAR v
ENCODING 118
SWIDTH 640 0
DWIDTH 12 0
BBX 12 11 0 0
BITMAP
F870
7020
3020
3040
1840
1880
0C80
0F00
0700
0600
0200
ENDCHAR
STARTCHAR w
ENCODING 119
SWIDTH 906 0
DWIDTH 17 0
BBX 17 11 0 0
BITMAP
F3E380
61C100
20C100
30C200
30E200
196400
197400
1E3400
0E3800
0C1800
041000
ENDCHAR
STARTCHAR x
ENCODING 120
SWIDTH 640 0
DWIDTH 12 0
BBX 12 11 0 0
BITMAP
F9E0
70C0
3980
1F00
0E00
0E00
1F00
2380
21C0
40E0
E1F0
ENDCHAR
STARTCHAR y
ENCODING 121
SWIDTH 640 0
DWIDTH 12 0
BBX 12 16 0 -5
BITMAP
F870
7020
3020
3040
1840
1C80
0C80
0700
0700
0200
0200
0400
0400
7800
7800
6000
ENDCHAR
STARTCHAR z
ENCODING 122
SWIDTH 586 0
DWIDTH 11 0
BBX 10 11 0 0
BITMAP
7FC0
4180
4300
0700
0600
0C00
1800
3800
3040
6040
FFC0
ENDCHAR
STARTCHAR braceleft
ENCODING 123
SWIDTH 640 0
DWIDTH 12 0
BBX 7 22 3 -5
BITMAP
06
08
10
30
30
30
38
30
10
20
C0
40
20
10
30
38
30
30
30
10
08
06
ENDCHAR
STARTCHAR bar
ENCODING 124
SWIDTH 266 0
DWIDTH 5 0
BBX 1 22 2 -5
BITMAP
80
80
80
80
80
80
80
80
80
80
80
80
80
80
80
80
80
80
80
80
80
80
ENDCHAR
STARTCHAR braceright
ENCODING 125
SWIDTH 640 0
DWIDTH 12 0
BBX 7 22 2 -5
BITMAP
80
60
20
30
30
30
30
30
30
10
0E
0C
10
30
30
30
30
30
30
20
40
80
ENDCHAR
STARTCHAR asciitilde
ENCODING 126
SWIDTH 693 0
DWIDTH 13 0
BBX 13 3 0 5
BITMAP
3808
4718
80E0
ENDCHAR
STARTCHAR C001122
ENCODING 133
SWIDTH 1280 0
DWIDTH 24 0
BBX 18 3 3 -1
BITMAP
E1C1C0
E1C1C0
E1C1C0
ENDCHAR
STARTCHAR C001107
ENCODING 145
SWIDTH 426 0
DWIDTH 8 0
BBX 4 6 2 10
BITMAP
20
40
80
E0
F0
60
ENDCHAR
STARTCHAR C001110
ENCODING 146
SWIDTH 426 0
DWIDTH 8 0
BBX 4 6 2 10
BITMAP
60
F0
70
10
30
40
ENDCHAR
STARTCHAR C001113
ENCODING 147
SWIDTH 586 0
DWIDTH 11 0
BBX 9 6 1 10
BITMAP
6180
4200
8400
E780
E780
6380
ENDCHAR
STARTCHAR C001114
ENCODING 148
SWIDTH 586 0
DWIDTH 11 0
BBX 9 6 1 13
BITMAP
C300
E780
E380
2080
2180
C200
ENDCHAR
STARTCHAR C001121
ENCODING 149
SWIDTH 426 0
DWIDTH 8 0
BBX 6 6 1 5
BITMAP
30
78
FC
FC
78
30
ENDCHAR
STARTCHAR C001103
ENCODING 150
SWIDTH 640 0
DWIDTH 12 0
BBX 13 1 0 5
BITMAP
FFF8
ENDCHAR
STARTCHAR C001104
ENCODING 151
SWIDTH 1280 0
DWIDTH 24 0
BBX 25 1 0 5
BITMAP
FFFFFF80
ENDCHAR
STARTCHAR exclamdown
ENCODING 161
SWIDTH 800 0
DWIDTH 15 0
BBX 12 15 1 0
BITMAP
0F80
31E0
2060
4030
FC30
3030
3030
3030
3030
3030
3030
3030
3030
3030
3020
ENDCHAR
STARTCHAR cent
ENCODING 162
SWIDTH 800 0
DWIDTH 15 0
BBX 11 15 1 0
BITMAP
3C20
4C60
8660
E660
9660
9660
6660
0660
0660
0660
0660
0660
0660
02C0
0180
ENDCHAR
STARTCHAR sterling
ENCODING 163
SWIDTH 906 0
DWIDTH 17 0
BBX 13 15 1 0
BITMAP
2608
7718
5B18
8B18
8318
9318
CB18
4B18
3B18
0318
0318
0318
0318
0110
00E0
ENDCHAR
STARTCHAR currency
ENCODING 164
SWIDTH 800 0
DWIDTH 15 0
BBX 11 15 1 0
BITMAP
0F80
31C0
60C0
40E0
8C60
9260
B260
7C60
3060
3060
3060
3060
3060
3060
3060
ENDCHAR
STARTCHAR yen
ENCODING 165
SWIDTH 800 0
DWIDTH 15 0
BBX 12 15 1 0
BITMAP
0980
3FE0
66E0
4030
8C30
9230
F230
7E30
3030
3030
3030
3030
3030
3030
3030
ENDCHAR
STARTCHAR brokenbar
ENCODING 166
SWIDTH 960 0
DWIDTH 18 0
BBX 15 15 1 0
BITMAP
2602
7706
5B06
8B06
8306
8B06
8B06
4B06
3B06
0306
0786
0B76
0B1E
0B0E
0606
ENDCHAR
STARTCHAR section
ENCODING 167
SWIDTH 640 0
DWIDTH 12 0
BBX 8 15 1 0
BITMAP
0E
12
13
17
0F
03
03
83
43
23
33
1B
0F
07
03
ENDCHAR
STARTCHAR diaeresis
ENCODING 168
SWIDTH 693 0
DWIDTH 13 0
BBX 10 15 1 0
BITMAP
1E00
2380
41C0
C0C0
38C0
5CC0
4CC0
3CC0
0CC0
0CC0
0CC0
0CC0
0CC0
0680
0300
ENDCHAR
STARTCHAR copyright
ENCODING 169
SWIDTH 853 0
DWIDTH 16 0
BBX 13 15 1 0
BITMAP
1F00
61E0
C0E0
4070
3030
5830
4830
3830
1830
1830
19F0
1E70
1C88
18C8
1870
ENDCHAR
STARTCHAR ordfeminine
ENCODING 170
SWIDTH 800 0
DWIDTH 15 0
BBX 14 15 1 0
BITMAP
3C1C
4E18
8638
8630
B7E0
5660
6670
0630
0630
0630
0630
0620
0620
0660
1FC0
ENDCHAR
STARTCHAR guillemotleft
ENCODING 171
SWIDTH 853 0
DWIDTH 16 0
BBX 15 15 1 0
BITMAP
230E
770C
5D9C
8998
81E0
99B0
C998
7998
1198
0198
0198
0198
0190
01B0
07F0
ENDCHAR
STARTCHAR notsign
ENCODING 172
SWIDTH 1013 0
DWIDTH 19 0
BBX 15 15 1 0
BITMAP
1E02
6186
40C6
80C6
F8C6
60C6
60C6
60C6
60C6
60C6
60C6
71C6
4AF6
4ACE
3186
ENDCHAR
STARTCHAR hyphen
ENCODING 173
SWIDTH 1013 0
DWIDTH 19 0
BBX 16 22 1 -7
BITMAP
1F01
2383
40C3
80C3
F8C3
30C3
30C3
30C3
30C3
30C3
30C3
3CC3
32C3
3662
1C3C
0000
0063
00E3
0063
0043
00C6
007C
ENDCHAR
STARTCHAR registered
ENCODING 174
SWIDTH 800 0
DWIDTH 15 0
BBX 12 22 1 -7
BITMAP
0F80
31E0
4060
4030
7C30
3030
3030
3030
3030
3030
7030
9030
9030
9130
6330
0230
1C30
2730
25B0
24F0
1870
0030
ENDCHAR
STARTCHAR macron
ENCODING 175
SWIDTH 853 0
DWIDTH 16 0
BBX 12 22 1 -7
BITMAP
1F00
10E0
2060
6030
7C30
3030
3030
3030
3030
3030
3030
D030
9030
D030
6330
0430
0430
1430
2C30
2C30
1BF0
0030
ENDCHAR
STARTCHAR degree
ENCODING 176
SWIDTH 746 0
DWIDTH 14 0
BBX 11 21 1 -6
BITMAP
1E20
23E0
4000
7F00
4380
31C0
4CC0
4CC0
3CC0
0CC0
0CC0
0CC0
0CC0
0CC0
0780
1100
76C0
9440
9BC0
68C0
0FC0
ENDCHAR
STARTCHAR plusminus
ENCODING 177
SWIDTH 1013 0
DWIDTH 19 0
BBX 16 15 1 0
BITMAP
260E
771E
5B33
8B23
8323
8B43
4B43
6B43
3343
0383
0383
0383
0383
0303
0303
ENDCHAR
STARTCHAR twosuperior
ENCODING 178
SWIDTH 1013 0
DWIDTH 19 0
BBX 16 15 1 0
BITMAP
0981
39C3
26E3
4263
C063
8663
8963
C963
6763
6663
3863
31FB
316F
3167
30C3
ENDCHAR
STARTCHAR threesuperior
ENCODING 179
SWIDTH 1066 0
DWIDTH 20 0
BBX 16 15 1 0
BITMAP
1E02
6186
41C6
80C6
F8C6
30C6
30C6
30C6
30C6
30C6
3CC6
36DE
32E9
14C9
18C6
ENDCHAR
STARTCHAR acute
ENCODING 180
SWIDTH 800 0
DWIDTH 15 0
BBX 12 15 1 0
BITMAP
0F00
30E0
6070
C070
8630
8930
C930
6930
6630
3C30
3C30
3830
3030
3030
3030
ENDCHAR
STARTCHAR mu
ENCODING 181
SWIDTH 800 0
DWIDTH 15 0
BBX 11 15 1 0
BITMAP
1080
39C0
66E0
4260
8060
8E60
9160
D160
4B60
6660
3C60
3860
3060
3060
3060
ENDCHAR
STARTCHAR paragraph
ENCODING 182
SWIDTH 746 0
DWIDTH 14 0
BBX 11 15 1 0
BITMAP
1F00
20C0
40C0
C060
F860
3060
3060
3060
3060
3060
3060
3C60
3660
3260
0C40
ENDCHAR
STARTCHAR periodcentered
ENCODING 183
SWIDTH 906 0
DWIDTH 17 0
BBX 13 15 1 0
BITMAP
7060
9890
9918
5918
7918
1A18
1A18
1A18
1A18
1C18
1C18
1C18
1C18
1818
1818
ENDCHAR
STARTCHAR cedilla
ENCODING 184
SWIDTH 746 0
DWIDTH 14 0
BBX 11 15 1 0
BITMAP
3C20
7F20
57C0
99C0
F800
1E00
19C0
18C0
18C0
18C0
18C0
18C0
18C0
18C0
7F80
ENDCHAR
STARTCHAR onesuperior
ENCODING 185
SWIDTH 906 0
DWIDTH 17 0
BBX 14 15 1 0
BITMAP
7008
9018
9818
9818
7818
1818
1818
1818
1818
1818
19F8
1B6C
1C44
1864
1838
ENDCHAR
STARTCHAR masculine
ENCODING 186
SWIDTH 906 0
DWIDTH 17 0
BBX 13 15 1 0
BITMAP
7818
8C18
8C18
4C18
7C18
0C18
0C18
0C18
0C18
0C18
0C18
0C18
0C18
0C38
3FF0
ENDCHAR
STARTCHAR guillemotright
ENCODING 187
SWIDTH 906 0
DWIDTH 17 0
BBX 13 24 1 0
BITMAP
0008
0018
0018
0018
0018
0018
0018
0018
0018
7818
8C18
8C18
4C18
7C18
0C18
0C18
0C18
0C18
0C18
0C18
0C18
0C18
0C38
3FF0
ENDCHAR
STARTCHAR onequarter
ENCODING 188
SWIDTH 746 0
DWIDTH 14 0
BBX 11 15 1 0
BITMAP
3060
C860
C860
F860
C060
C460
C460
CA60
DA60
D160
E0E0
E0E0
C060
C060
C040
ENDCHAR
STARTCHAR onehalf
ENCODING 189
SWIDTH 746 0
DWIDTH 14 0
BBX 11 24 1 0
BITMAP
0020
0060
0060
0060
0060
0060
0060
0060
0060
3060
C860
C860
F860
C060
C460
C460
CA60
DA60
D160
E0E0
E0E0
C060
C060
C040
ENDCHAR
STARTCHAR threequarters
ENCODING 190
SWIDTH 906 0
DWIDTH 17 0
BBX 14 15 1 0
BITMAP
708C
988C
99CC
994C
794C
196C
1A2C
1A2C
1A2C
1A3C
1C1C
1C1C
1C1C
180C
180C
ENDCHAR
STARTCHAR questiondown
ENCODING 191
SWIDTH 906 0
DWIDTH 17 0
BBX 14 23 1 0
BITMAP
0004
000C
000C
000C
000C
000C
000C
000C
608C
988C
994C
994C
794C
194C
1A2C
1A2C
1A2C
1A1C
1C1C
1C1C
1C1C
180C
180C
ENDCHAR
STARTCHAR Agrave
ENCODING 192
SWIDTH 800 0
DWIDTH 15 0
BBX 12 15 1 0
BITMAP
0F80
11E0
2070
6030
7C30
1830
1830
1830
1830
1830
7830
9830
9830
9830
6020
ENDCHAR
STARTCHAR Aacute
ENCODING 193
SWIDTH 800 0
DWIDTH 15 0
BBX 12 15 1 0
BITMAP
7010
9830
8830
5830
7830
1830
1830
1830
1830
1830
3C30
5E30
5930
59F0
3060
ENDCHAR
STARTCHAR Acircumflex
ENCODING 194
SWIDTH 693 0
DWIDTH 13 0
BBX 10 15 1 0
BITMAP
3040
48C0
C8C0
C8C0
B0C0
40C0
78C0
C0C0
C0C0
C0C0
C0C0
C0C0
C0C0
6180
1E00
ENDCHAR
STARTCHAR Atilde
ENCODING 195
SWIDTH 693 0
DWIDTH 13 0
BBX 10 15 1 0
BITMAP
3840
4F80
8300
8000
7800
0700
0300
0300
0300
0300
0300
1F00
2300
2200
1C00
ENDCHAR
STARTCHAR Adiaeresis
ENCODING 196
SWIDTH 746 0
DWIDTH 14 0
BBX 11 21 1 -6
BITMAP
1F00
20C0
40C0
C060
F860
3060
3060
3060
3060
3060
3060
3C60
3660
3260
0C60
0060
0060
0060
0060
0060
0040
ENDCHAR
STARTCHAR Aring
ENCODING 197
SWIDTH 746 0
DWIDTH 14 0
BBX 11 15 1 0
BITMAP
1F00
61C0
80E0
8060
1F60
38E0
7060
6060
6060
6060
7C60
6660
6260
2660
3860
ENDCHAR
STARTCHAR AE
ENCODING 198
SWIDTH 800 0
DWIDTH 15 0
BBX 12 21 1 -6
BITMAP
0F80
11E0
2070
6030
7C30
1830
1830
1830
1830
1830
7830
9830
9830
9830
6030
0030
0030
0030
0030
0030
0020
ENDCHAR
STARTCHAR Ccedilla
ENCODING 199
SWIDTH 693 0
DWIDTH 13 0
BBX 10 15 1 0
BITMAP
1E00
6380
41C0
80C0
00C0
00C0
00C0
00C0
00C0
00C0
00C0
03C0
04C0
0480
0300
ENDCHAR
STARTCHAR Egrave
ENCODING 200
SWIDTH 746 0
DWIDTH 14 0
BBX 13 16 1 0
BITMAP
0018
0F98
31F0
60F0
C060
8CE0
9360
F260
7C60
3060
3060
3060
3060
3060
3060
3060
ENDCHAR
STARTCHAR Eacute
ENCODING 201
SWIDTH 853 0
DWIDTH 16 0
BBX 13 15 1 0
BITMAP
7008
9018
9818
9818
7818
1818
1F18
1918
1818
1C38
1BD8
1818
1818
1838
3FE0
ENDCHAR
STARTCHAR Ecircumflex
ENCODING 202
SWIDTH 853 0
DWIDTH 16 0
BBX 14 16 1 0
BITMAP
000C
0F8C
31E8
6078
C070
4FB0
18F0
3030
3030
3030
3030
3030
3C30
3230
3230
1C30
ENDCHAR
STARTCHAR Ediaeresis
ENCODING 203
SWIDTH 906 0
DWIDTH 17 0
BBX 14 15 1 0
BITMAP
7018
9024
9824
9824
7838
1878
1898
1918
1A18
1C18
1818
1818
1818
1818
1818
ENDCHAR
STARTCHAR Igrave
ENCODING 204
SWIDTH 906 0
DWIDTH 17 0
BBX 16 16 1 0
BITMAP
0033
602B
9147
914E
913C
7398
3298
3298
32D8
3458
3458
3478
3838
3838
3838
3018
ENDCHAR
STARTCHAR Iacute
ENCODING 205
SWIDTH 746 0
DWIDTH 14 0
BBX 11 15 1 0
BITMAP
1F00
61C0
40C0
8060
9860
6460
6460
7860
6060
6060
6060
6060
6060
11C0
0F00
ENDCHAR
STARTCHAR Icircumflex
ENCODING 206
SWIDTH 746 0
DWIDTH 14 0
BBX 10 15 1 0
BITMAP
3EC0
C3C0
8180
C380
3D80
0180
3980
C580
C580
F980
C180
C180
C180
6300
1C00
ENDCHAR
STARTCHAR Idiaeresis
ENCODING 207
SWIDTH 800 0
DWIDTH 15 0
BBX 11 15 1 0
BITMAP
00E0
01E0
0160
7160
CA60
C260
CC60
7860
0060
0060
0060
0060
0060
0060
0060
ENDCHAR
STARTCHAR ETH
ENCODING 208
SWIDTH 693 0
DWIDTH 13 0
BBX 11 14 1 0
BITMAP
78E0
CCC0
CCC0
FF80
3E00
0000
0000
0000
78E0
ECC0
CCC0
CDC0
7F80
3E00
ENDCHAR
STARTCHAR Ntilde
ENCODING 209
SWIDTH 0 0
DWIDTH 0 0
BBX 10 6 -9 17
BITMAP
70C0
C880
8880
8980
7F00
3C00
ENDCHAR
STARTCHAR Ograve
ENCODING 210
SWIDTH 533 0
DWIDTH 10 0
BBX 8 15 1 0
BITMAP
38
C6
83
03
03
03
03
03
03
03
03
03
03
03
03
ENDCHAR
STARTCHAR Oacute
ENCODING 211
SWIDTH 586 0
DWIDTH 11 0
BBX 15 23 -6 0
BITMAP
7800
CC00
8400
C400
7800
0000
0000
0000
0070
018C
0106
0006
0006
0006
0006
0006
0006
0006
0006
0006
0006
0006
0006
ENDCHAR
STARTCHAR Ocircumflex
ENCODING 212
SWIDTH 0 0
DWIDTH 0 0
BBX 12 7 -13 17
BITMAP
0F80
38C0
6060
4020
FF20
00F0
0010
ENDCHAR
STARTCHAR Otilde
ENCODING 213
SWIDTH 0 0
DWIDTH 0 0
BBX 12 7 -14 17
BITMAP
0060
1F60
31E0
4060
4020
FFA0
0070
ENDCHAR
STARTCHAR Odiaeresis
ENCODING 214
SWIDTH 0 0
DWIDTH 0 0
BBX 13 9 -13 17
BITMAP
0070
00D0
0098
0F98
70E0
4020
FF90
00F0
0010
ENDCHAR
STARTCHAR multiply
ENCODING 215
SWIDTH 0 0
DWIDTH 0 0
BBX 12 8 -12 17
BITMAP
0660
0660
0E60
3FE0
61E0
C060
FF20
00F0
ENDCHAR
STARTCHAR Ooblique
ENCODING 216
SWIDTH 0 0
DWIDTH 0 0
BBX 5 6 -7 -7
BITMAP
70
98
98
78
18
18
ENDCHAR
STARTCHAR Ugrave
ENCODING 217
SWIDTH 0 0
DWIDTH 0 0
BBX 8 6 -10 -7
BITMAP
63
93
93
73
13
0E
ENDCHAR
STARTCHAR Uacute
ENCODING 218
SWIDTH 0 0
DWIDTH 0 0
BBX 3 3 -5 -5
BITMAP
E0
E0
E0
ENDCHAR
STARTCHAR Ucircumflex
ENCODING 219
SWIDTH 426 0
DWIDTH 8 0
BBX 0 0 0 0
BITMAP
ENDCHAR
STARTCHAR Udiaeresis
ENCODING 220
SWIDTH 426 0
DWIDTH 8 0
BBX 8 3 0 -3
BITMAP
FF
FF
81
ENDCHAR
STARTCHAR ssharp
ENCODING 223
SWIDTH 853 0
DWIDTH 16 0
BBX 14 19 1 -1
BITMAP
0300
0300
FFC0
7370
3338
3318
3318
3310
3370
3FC0
3370
3318
331C
331C
331C
3318
3FF8
FFE0
0300
ENDCHAR
STARTCHAR agrave
ENCODING 224
SWIDTH 320 0
DWIDTH 6 0
BBX 4 15 1 0
BITMAP
40
C0
C0
C0
C0
C0
C0
C0
C0
C0
C0
E0
90
90
60
ENDCHAR
STARTCHAR aacute
ENCODING 225
SWIDTH 746 0
DWIDTH 14 0
BBX 13 15 1 0
BITMAP
2040
60C0
60C0
60C0
60C0
60C0
60C0
60C0
60C0
60C0
60C0
70E0
4890
4890
3060
ENDCHAR
STARTCHAR acircumflex
ENCODING 226
SWIDTH 693 0
DWIDTH 13 0
BBX 11 24 1 0
BITMAP
1C00
7F20
C7C0
3180
0C00
0200
0300
0300
0300
0300
0300
0300
0300
0300
0300
0300
0300
0300
0300
0300
0380
0240
0240
0180
ENDCHAR
STARTCHAR atilde
ENCODING 227
SWIDTH 586 0
DWIDTH 11 0
BBX 9 24 1 0
BITMAP
3C00
4E00
8600
9E00
8E00
5E00
3600
0600
0600
0600
0600
0600
0600
0600
0600
0600
0600
0600
0600
0600
0700
0480
0480
0300
ENDCHAR
STARTCHAR adiaeresis
ENCODING 228
SWIDTH 693 0
DWIDTH 13 0
BBX 10 25 1 0
BITMAP
C000
6700
6B00
6B00
6B00
6B00
6B00
3300
0300
0300
0300
0300
0300
0300
0300
0300
0300
0300
0300
0300
0300
0380
0240
0240
0180
ENDCHAR
STARTCHAR aring
ENCODING 229
SWIDTH 586 0
DWIDTH 11 0
BBX 8 21 1 -6
BITMAP
3C
47
83
03
03
03
03
03
03
03
03
03
03
03
03
03
03
03
03
03
03
ENDCHAR
STARTCHAR ae
ENCODING 230
SWIDTH 853 0
DWIDTH 16 0
BBX 12 20 1 -5
BITMAP
31C0
4E60
4430
8030
B030
9030
D030
3030
0030
0030
0030
0030
0030
0030
0030
0030
0030
0030
0030
0030
ENDCHAR
STARTCHAR ccedilla
ENCODING 231
SWIDTH 0 0
DWIDTH 0 0
BBX 10 10 -12 17
BITMAP
00C0
00C0
00C0
3B80
4000
8180
81C0
81C0
F8C0
2780
ENDCHAR
STARTCHAR egrave
ENCODING 232
SWIDTH 0 0
DWIDTH 0 0
BBX 3 5 -5 26
BITMAP
E0
E0
E0
40
40
ENDCHAR
STARTCHAR eacute
ENCODING 233
SWIDTH 0 0
DWIDTH 0 0
BBX 7 8 -5 27
BITMAP
06
46
A4
A4
6C
28
70
C0
ENDCHAR
STARTCHAR ecircumflex
ENCODING 234
SWIDTH 0 0
DWIDTH 0 0
BBX 9 7 -8 27
BITMAP
0180
4880
B480
8580
A700
6E00
2800
ENDCHAR
STARTCHAR ediaeresis
ENCODING 235
SWIDTH 0 0
DWIDTH 0 0
BBX 6 6 -7 26
BITMAP
30
30
FC
FC
30
30
ENDCHAR
STARTCHAR igrave
ENCODING 236
SWIDTH 0 0
DWIDTH 0 0
BBX 6 8 -3 24
BITMAP
04
04
04
08
70
90
90
60
ENDCHAR
STARTCHAR iacute
ENCODING 237
SWIDTH 0 0
DWIDTH 0 0
BBX 6 5 -8 17
BITMAP
78
CC
84
C4
78
ENDCHAR
STARTCHAR icircumflex
ENCODING 238
SWIDTH 0 0
DWIDTH 0 0
BBX 7 9 -7 17
BITMAP
1E
30
30
38
38
E0
C0
C0
78
ENDCHAR
STARTCHAR idiaeresis
ENCODING 239
SWIDTH 853 0
DWIDTH 16 0
BBX 13 13 1 0
BITMAP
0F00
30C0
4030
C610
9F08
9F88
9F88
9F08
CE18
4010
6020
30C0
0F00
ENDCHAR
STARTCHAR eth
ENCODING 240
SWIDTH 800 0
DWIDTH 15 0
BBX 12 11 1 0
BITMAP
0F00
3FC0
70E0
E060
C030
C030
C030
C030
6060
70E0
0F00
ENDCHAR
STARTCHAR ntilde
ENCODING 241
SWIDTH 800 0
DWIDTH 15 0
BBX 12 11 1 0
BITMAP
0F00
3FC0
71C0
6060
6070
C630
CF30
CF30
E720
6660
1880
ENDCHAR
STARTCHAR ograve
ENCODING 242
SWIDTH 1120 0
DWIDTH 21 0
BBX 18 17 1 0
BITMAP
E00000
600000
600000
600000
600000
600000
600000
61E780
63FF80
6739C0
6618C0
64C8C0
64E8C0
62E8C0
63C980
600300
3FFE00
ENDCHAR
STARTCHAR oacute
ENCODING 243
SWIDTH 1013 0
DWIDTH 19 0
BBX 16 11 1 0
BITMAP
0E38
3F7E
61E6
C0C3
C0C3
80C3
8CC3
9EC7
5EC6
6F8C
3908
ENDCHAR
STARTCHAR ocircumflex
ENCODING 244
SWIDTH 1013 0
DWIDTH 19 0
BBX 15 16 1 0
BITMAP
0006
0006
0006
0004
0018
00F0
0780
1C00
7070
60F8
C1B8
C1B0
C0C0
E0E0
78F8
3F06
ENDCHAR
STARTCHAR otilde
ENCODING 245
SWIDTH 1013 0
DWIDTH 19 0
BBX 16 16 1 0
BITMAP
0003
01C3
0362
0366
036C
01FC
01E0
1E38
707C
60DC
C0CC
C060
C070
E038
70FC
1F06
ENDCHAR
STARTCHAR odiaeresis
ENCODING 246
SWIDTH 853 0
DWIDTH 16 0
BBX 12 17 1 0
BITMAP
C000
E000
6000
3000
1000
1000
1000
1F80
38C0
0060
0030
1830
3C30
3C30
3060
18C0
0780
ENDCHAR
STARTCHAR division
ENCODING 247
SWIDTH 1066 0
DWIDTH 20 0
BBX 17 17 1 0
BITMAP
003000
003C00
003E00
000F00
000300
000180
1CE180
3DF080
673080
C21880
C11880
C01900
C41900
4E1300
4E3600
6E3800
1C7000
ENDCHAR
STARTCHAR oslash
ENCODING 248
SWIDTH 960 0
DWIDTH 18 0
BBX 15 16 1 0
BITMAP
0004
0006
0006
0006
0006
0006
1F0C
3FF8
70F0
E000
C000
C010
CC38
7F3C
39DC
1870
ENDCHAR
STARTCHAR ugrave
ENCODING 249
SWIDTH 800 0
DWIDTH 15 0
BBX 12 17 1 0
BITMAP
0030
0030
0060
3FC0
6000
6000
3040
1FC0
3800
7000
6000
C380
C3C0
C3C0
6080
3180
1E00
ENDCHAR
STARTCHAR uacute
ENCODING 250
SWIDTH 906 0
DWIDTH 17 0
BBX 14 15 1 0
BITMAP
00EC
01EC
016C
716C
D36C
826C
866C
DC6C
706C
006C
006C
006C
006C
006C
006C
ENDCHAR
STARTCHAR ucircumflex
ENCODING 251
SWIDTH 1600 0
DWIDTH 30 0
BBX 28 13 1 0
BITMAP
0F800000
38C00000
60000000
60000000
E0000000
C0000000
C0088830
C019DC20
C01D5420
60367660
603223C0
30E00000
0F800000
ENDCHAR
STARTCHAR udiaeresis
ENCODING 252
SWIDTH 0 0
DWIDTH 0 0
BBX 5 6 -7 -15
BITMAP
70
98
98
78
18
18
ENDCHAR
STARTCHAR yacute
ENCODING 253
SWIDTH 0 0
DWIDTH 0 0
BBX 8 7 -10 -15
BITMAP
60
93
93
73
13
13
1E
ENDCHAR
STARTCHAR thorn
ENCODING 254
SWIDTH 0 0
DWIDTH 0 0
BBX 3 3 -5 -13
BITMAP
E0
E0
E0
ENDCHAR
ENDFONT
